<svg width="20" height="20" viewBox="0 0 20 20" fill="none" xmlns="http://www.w3.org/2000/svg">
<path d="M20 16L19.9951 16.2061C19.8913 18.2512 18.2512 19.8913 16.2061 19.9951L16 20H4L3.79395 19.9951C1.7488 19.8913 0.108652 18.2512 0.00488281 16.2061L0 16V15H1V16C1 17.6569 2.34315 19 4 19H16C17.6569 19 19 17.6569 19 16V15H20V16ZM1 13H0V8H1V13ZM20 13H19V8H20V13ZM16.2061 0.00488281C18.3194 0.112115 20 1.85996 20 4V6H19V4C19 2.34315 17.6569 1 16 1H4C2.34315 1 1 2.34315 1 4V6H0V4C0 1.85996 1.68056 0.112115 3.79395 0.00488281L4 0H16L16.2061 0.00488281Z" fill="black"/>
</svg>
