<svg width="20" height="26" viewBox="0 0 20 26" fill="none" xmlns="http://www.w3.org/2000/svg">
<path d="M1 23.5557V2.44813C1 2.09825 1.13546 1.7627 1.37658 1.5153C1.6177 1.2679 1.94472 1.12891 2.28571 1.12891H10.2211C10.9031 1.12906 11.557 1.40713 12.0391 1.90197L18.2466 8.27118C18.7288 8.76587 18.9999 9.43686 19 10.1366V23.5557C19 23.9056 18.8645 24.2411 18.6234 24.4885C18.3823 24.7359 18.0553 24.8749 17.7143 24.8749H2.28571C1.94472 24.8749 1.6177 24.7359 1.37658 24.4885C1.13546 24.2411 1 23.9056 1 23.5557Z" stroke="#F54D0B" stroke-linejoin="round"/>
<path d="M9.99988 1.12891V9.04424C9.99988 9.39412 10.1353 9.72967 10.3765 9.97707C10.6176 10.2245 10.9446 10.3635 11.2856 10.3635H18.9999" stroke="#F54D0B" stroke-linejoin="round"/>
</svg>
