<svg width="51" height="50" viewBox="0 0 51 50" fill="none" xmlns="http://www.w3.org/2000/svg">
<path d="M25.6697 0.686157C22.3867 0.686157 19.1358 1.3356 16.1027 2.59741C13.0695 3.85922 10.3135 5.70868 7.99207 8.0402C3.30366 12.7489 0.669739 19.1353 0.669739 25.7944C0.669739 36.8923 7.84474 46.3079 17.7697 49.6473C19.0197 49.8481 19.4197 49.0698 19.4197 48.3919V44.1486C12.4947 45.6551 11.0197 40.784 11.0197 40.784C9.86974 37.8715 8.24474 37.0931 8.24474 37.0931C5.96974 35.5364 8.41974 35.5866 8.41974 35.5866C10.9197 35.7624 12.2447 38.1728 12.2447 38.1728C14.4197 41.9892 18.0947 40.8594 19.5197 40.2568C19.7447 38.6247 20.3947 37.52 21.0947 36.8923C15.5447 36.2646 9.71974 34.1053 9.71974 24.539C9.71974 21.752 10.6697 19.5174 12.2947 17.7347C12.0447 17.107 11.1697 14.4957 12.5447 11.1061C12.5447 11.1061 14.6447 10.4282 19.4197 13.6671C21.3947 13.1147 23.5447 12.8386 25.6697 12.8386C27.7947 12.8386 29.9447 13.1147 31.9197 13.6671C36.6947 10.4282 38.7947 11.1061 38.7947 11.1061C40.1697 14.4957 39.2947 17.107 39.0447 17.7347C40.6697 19.5174 41.6197 21.752 41.6197 24.539C41.6197 34.1304 35.7697 36.2395 30.1947 36.8672C31.0947 37.6455 31.9197 39.1771 31.9197 41.5122V48.3919C31.9197 49.0698 32.3197 49.8732 33.5947 49.6473C43.5197 46.2828 50.6697 36.8923 50.6697 25.7944C50.6697 22.4972 50.0231 19.2322 48.7667 16.1859C47.5104 13.1396 45.6689 10.3717 43.3474 8.0402C41.0259 5.70868 38.27 3.85922 35.2368 2.59741C32.2037 1.3356 28.9528 0.686157 25.6697 0.686157Z" fill="black"/>
</svg>
