<svg width="18" height="18" viewBox="0 0 18 18" fill="none" xmlns="http://www.w3.org/2000/svg">
<path d="M8.76563 0C7.03195 0 5.33721 0.514095 3.89571 1.47727C2.45421 2.44045 1.3307 3.80946 0.667247 5.41117C0.00379786 7.01287 -0.169791 8.77535 0.168433 10.4757C0.506657 12.1761 1.3415 13.738 2.5674 14.9639C3.79329 16.1898 5.35518 17.0246 7.05554 17.3628C8.7559 17.701 10.5184 17.5275 12.1201 16.864C13.7218 16.2006 15.0908 15.077 16.054 13.6355C17.0172 12.194 17.5313 10.4993 17.5313 8.76562C17.5285 6.44167 16.6041 4.21369 14.9608 2.57041C13.3176 0.927124 11.0896 0.00272925 8.76563 0ZM8.76563 16.5C7.23591 16.5 5.74055 16.0464 4.46864 15.1965C3.19673 14.3467 2.20539 13.1387 1.62 11.7254C1.0346 10.3122 0.881435 8.75705 1.17987 7.25672C1.4783 5.7564 2.21493 4.37827 3.2966 3.2966C4.37827 2.21492 5.75641 1.4783 7.25673 1.17986C8.75705 0.881431 10.3122 1.0346 11.7254 1.61999C13.1387 2.20539 14.3467 3.19673 15.1965 4.46864C16.0464 5.74055 16.5 7.23591 16.5 8.76562C16.4977 10.8162 15.6821 12.7822 14.2321 14.2321C12.7822 15.6821 10.8162 16.4977 8.76563 16.5ZM5.84375 8.76562C5.84375 9.37888 6.03671 9.97658 6.39528 10.4741C6.75385 10.9716 7.25987 11.3436 7.84165 11.5376C8.42343 11.7315 9.05148 11.7374 9.63684 11.5546C10.2222 11.3717 10.7352 11.0093 11.1031 10.5187C11.1853 10.4093 11.3076 10.3371 11.443 10.3178C11.5785 10.2985 11.716 10.3339 11.8254 10.4161C11.9348 10.4982 12.0071 10.6205 12.0264 10.7559C12.0456 10.8914 12.0103 11.029 11.9281 11.1384C11.4302 11.8019 10.7361 12.292 9.9442 12.5392C9.15228 12.7864 8.30267 12.7782 7.51568 12.5157C6.72868 12.2533 6.04421 11.7499 5.55918 11.0768C5.07415 10.4038 4.81315 9.59522 4.81315 8.76562C4.81315 7.93603 5.07415 7.12745 5.55918 6.45441C6.04421 5.78137 6.72868 5.27798 7.51568 5.01553C8.30267 4.75308 9.15228 4.74488 9.9442 4.99207C10.7361 5.23927 11.4302 5.72935 11.9281 6.39289C12.0103 6.50229 12.0456 6.63985 12.0264 6.77531C12.0071 6.91077 11.9348 7.03303 11.8254 7.1152C11.716 7.19736 11.5785 7.2327 11.443 7.21344C11.3076 7.19418 11.1853 7.1219 11.1031 7.0125C10.7352 6.5219 10.2222 6.15951 9.63684 5.97666C9.05148 5.7938 8.42343 5.79976 7.84165 5.99369C7.25987 6.18762 6.75385 6.55968 6.39528 7.05717C6.03671 7.55467 5.84375 8.15237 5.84375 8.76562Z" fill="white"/>
</svg>
