<svg width="29" height="17" viewBox="0 0 29 17" fill="none" xmlns="http://www.w3.org/2000/svg">
<path d="M21.7188 13.9934V12.3027C21.7188 11.4059 21.3626 10.5459 20.7284 9.91175C20.0943 9.27763 19.2343 8.92139 18.3375 8.92139H11.5749C10.6781 8.92139 9.81803 9.27763 9.18391 9.91175C8.54979 10.5459 8.19354 11.4059 8.19354 12.3027V13.9934" stroke="black" stroke-linecap="round" stroke-linejoin="round"/>
<path d="M14.9562 7.68526C16.8236 7.68526 18.3375 6.17139 18.3375 4.30393C18.3375 2.43648 16.8236 0.922607 14.9562 0.922607C13.0887 0.922607 11.5749 2.43648 11.5749 4.30393C11.5749 6.17139 13.0887 7.68526 14.9562 7.68526Z" stroke="black" stroke-linecap="round" stroke-linejoin="round"/>
<path d="M28.3791 15.9663V14.2095C28.3791 13.2777 28.1169 12.384 27.6502 11.7251C27.1835 11.0662 26.5504 10.696 25.8904 10.696H20.9128" stroke="black" stroke-linecap="round" stroke-linejoin="round"/>
<path d="M23.6355 9.77282C25.503 9.77282 27.0169 8.25897 27.0169 6.39154C27.0169 4.5241 25.503 3.01025 23.6355 3.01025C21.768 3.01025 20.2542 4.5241 20.2542 6.39154C20.2542 8.25897 21.768 9.77282 23.6355 9.77282Z" stroke="black" stroke-linecap="round" stroke-linejoin="round"/>
<path d="M0.889159 15.1756V13.492C0.889159 12.599 1.15908 11.7425 1.63954 11.1111C2.11999 10.4796 2.77163 10.1249 3.4511 10.1249H8.575" stroke="black" stroke-linecap="round" stroke-linejoin="round"/>
<path d="M7.12499 8.76251C5.25754 8.76251 3.74367 7.24864 3.74367 5.38119C3.74367 3.51374 5.25754 1.99988 7.12499 1.99988C8.99245 1.99988 10.5063 3.51374 10.5063 5.38119C10.5063 7.24864 8.99245 8.76251 7.12499 8.76251Z" stroke="black" stroke-linecap="round" stroke-linejoin="round"/>
</svg>
