<svg width="51" height="36" viewBox="0 0 51 36" fill="none" xmlns="http://www.w3.org/2000/svg">
<path d="M20.3364 25.6862L33.3114 18.1862L20.3364 10.6862V25.6862ZM49.2364 6.11116C49.5614 7.28616 49.7864 8.86116 49.9364 10.8612C50.1114 12.8612 50.1864 14.5862 50.1864 16.0862L50.3364 18.1862C50.3364 23.6612 49.9364 27.6862 49.2364 30.2612C48.6114 32.5112 47.1614 33.9612 44.9114 34.5862C43.7364 34.9112 41.5864 35.1362 38.2864 35.2862C35.0364 35.4612 32.0614 35.5362 29.3114 35.5362L25.3364 35.6862C14.8614 35.6862 8.33643 35.2862 5.76143 34.5862C3.51143 33.9612 2.06143 32.5112 1.43643 30.2612C1.11143 29.0862 0.886426 27.5112 0.736426 25.5112C0.561426 23.5112 0.486426 21.7862 0.486426 20.2862L0.336426 18.1862C0.336426 12.7112 0.736426 8.68616 1.43643 6.11116C2.06143 3.86116 3.51143 2.41116 5.76143 1.78616C6.93643 1.46116 9.08643 1.23616 12.3864 1.08616C15.6364 0.911157 18.6114 0.836157 21.3614 0.836157L25.3364 0.686157C35.8114 0.686157 42.3364 1.08616 44.9114 1.78616C47.1614 2.41116 48.6114 3.86116 49.2364 6.11116Z" fill="black"/>
</svg>
