<svg width="16" height="18" viewBox="0 0 16 18" fill="none" xmlns="http://www.w3.org/2000/svg">
<path d="M15.2002 0C15.4122 5.2796e-05 15.6157 0.0860072 15.7656 0.239258C15.9157 0.392697 16 0.601364 16 0.818359C16 1.03525 15.9156 1.2431 15.7656 1.39648C15.6156 1.54988 15.4123 1.63667 15.2002 1.63672H10.9951L6.6748 16.3633H10.4004C10.6124 16.3634 10.8159 16.4502 10.9658 16.6035C11.1157 16.7569 11.2001 16.9648 11.2002 17.1816C11.2002 17.3986 11.1158 17.6073 10.9658 17.7607C10.8159 17.914 10.6124 17.9999 10.4004 18H0.799805C0.587806 17.9999 0.384337 17.914 0.234375 17.7607C0.0843459 17.6073 0 17.3986 0 17.1816C4.59257e-05 16.9648 0.0844434 16.7569 0.234375 16.6035C0.384358 16.4501 0.587702 16.3633 0.799805 16.3633H5.00488L9.3252 1.63672H5.59961C5.38758 1.63661 5.18412 1.54983 5.03418 1.39648C4.88431 1.24311 4.79985 1.0352 4.7998 0.818359C4.7998 0.601364 4.88415 0.392697 5.03418 0.239258C5.1841 0.085993 5.38764 0.000105725 5.59961 0H15.2002Z" fill="black"/>
<path d="M15.2002 0C15.4122 5.2796e-05 15.6157 0.0860072 15.7656 0.239258C15.9157 0.392697 16 0.601364 16 0.818359C16 1.03525 15.9156 1.2431 15.7656 1.39648C15.6156 1.54988 15.4123 1.63667 15.2002 1.63672H10.9951L6.6748 16.3633H10.4004C10.6124 16.3634 10.8159 16.4502 10.9658 16.6035C11.1157 16.7569 11.2001 16.9648 11.2002 17.1816C11.2002 17.3986 11.1158 17.6073 10.9658 17.7607C10.8159 17.914 10.6124 17.9999 10.4004 18H0.799805C0.587806 17.9999 0.384337 17.914 0.234375 17.7607C0.0843459 17.6073 0 17.3986 0 17.1816C4.59257e-05 16.9648 0.0844434 16.7569 0.234375 16.6035C0.384358 16.4501 0.587702 16.3633 0.799805 16.3633H5.00488L9.3252 1.63672H5.59961C5.38758 1.63661 5.18412 1.54983 5.03418 1.39648C4.88431 1.24311 4.79985 1.0352 4.7998 0.818359C4.7998 0.601364 4.88415 0.392697 5.03418 0.239258C5.1841 0.085993 5.38764 0.000105725 5.59961 0H15.2002Z" stroke="black"/>
</svg>
