<svg width="18" height="20" viewBox="0 0 18 20" fill="none" xmlns="http://www.w3.org/2000/svg">
<path d="M17 1V19" stroke="black" stroke-width="2" stroke-linecap="round" stroke-linejoin="round"/>
<path d="M12 4H3C1.89543 4 1 4.89543 1 6C1 7.10457 1.89543 8 3 8H12C13.1046 8 14 7.10457 14 6C14 4.89543 13.1046 4 12 4Z" fill="black" stroke="black" stroke-width="2" stroke-linecap="round" stroke-linejoin="round"/>
<path d="M12 12H7C5.89543 12 5 12.8954 5 14C5 15.1046 5.89543 16 7 16H12C13.1046 16 14 15.1046 14 14C14 12.8954 13.1046 12 12 12Z" fill="black" stroke="black" stroke-width="2" stroke-linecap="round" stroke-linejoin="round"/>
</svg>
