<svg width="18" height="20" viewBox="0 0 18 20" fill="none" xmlns="http://www.w3.org/2000/svg">
<path d="M1 1V19" stroke="black" stroke-width="2" stroke-linecap="round" stroke-linejoin="round"/>
<path d="M15 4H6C4.89543 4 4 4.89543 4 6C4 7.10457 4.89543 8 6 8H15C16.1046 8 17 7.10457 17 6C17 4.89543 16.1046 4 15 4Z" fill="black" stroke="black" stroke-width="2" stroke-linecap="round" stroke-linejoin="round"/>
<path d="M11 12H6C4.89543 12 4 12.8954 4 14C4 15.1046 4.89543 16 6 16H11C12.1046 16 13 15.1046 13 14C13 12.8954 12.1046 12 11 12Z" fill="black" stroke="black" stroke-width="2" stroke-linecap="round" stroke-linejoin="round"/>
</svg>
