<svg width="18" height="15" viewBox="0 0 18 15" fill="none" xmlns="http://www.w3.org/2000/svg">
<path d="M14.25 0C14.4489 0 14.6397 0.0790175 14.7803 0.21967C14.921 0.360322 15 0.551088 15 0.75C15 0.948912 14.921 1.13968 14.7803 1.28033C14.6397 1.42098 14.4489 1.5 14.25 1.5H3.25C3.05109 1.5 2.86032 1.42098 2.71967 1.28033C2.57902 1.13968 2.5 0.948912 2.5 0.75C2.5 0.551088 2.57902 0.360322 2.71967 0.21967C2.86032 0.0790175 3.05109 0 3.25 0H14.25ZM16.75 4.5C16.9489 4.5 17.1397 4.57902 17.2803 4.71967C17.421 4.86032 17.5 5.05109 17.5 5.25C17.5 5.44891 17.421 5.63968 17.2803 5.78033C17.1397 5.92098 16.9489 6 16.75 6H0.75C0.551087 6 0.360322 5.92098 0.21967 5.78033C0.0790175 5.63968 0 5.44891 0 5.25C0 5.05109 0.0790175 4.86032 0.21967 4.71967C0.360322 4.57902 0.551087 4.5 0.75 4.5H16.75ZM16.75 13.5C16.9489 13.5 17.1397 13.579 17.2803 13.7197C17.421 13.8603 17.5 14.0511 17.5 14.25C17.5 14.4489 17.421 14.6397 17.2803 14.7803C17.1397 14.921 16.9489 15 16.75 15H0.75C0.551087 15 0.360322 14.921 0.21967 14.7803C0.0790175 14.6397 0 14.4489 0 14.25C0 14.0511 0.0790175 13.8603 0.21967 13.7197C0.360322 13.579 0.551087 13.5 0.75 13.5H16.75ZM15 9.75C15 9.55109 14.921 9.36032 14.7803 9.21967C14.6397 9.07902 14.4489 9 14.25 9H3.25C3.05109 9 2.86032 9.07902 2.71967 9.21967C2.57902 9.36032 2.5 9.55109 2.5 9.75C2.5 9.94891 2.57902 10.1397 2.71967 10.2803C2.86032 10.421 3.05109 10.5 3.25 10.5H14.25C14.4489 10.5 14.6397 10.421 14.7803 10.2803C14.921 10.1397 15 9.94891 15 9.75Z" fill="black"/>
</svg>
