<svg width="16" height="22" viewBox="0 0 16 22" fill="none" xmlns="http://www.w3.org/2000/svg">
<path fill-rule="evenodd" clip-rule="evenodd" d="M1.25711 0V9.80736C1.25711 10.9452 1.27386 11.8537 1.30736 12.5331C1.35765 13.2124 1.44147 13.7643 1.55882 14.1888C1.6929 14.6134 1.8689 15.004 2.08683 15.3606C3.12608 17.0589 5.04531 17.908 7.84453 17.908C10.4594 17.908 12.3283 17.1523 13.4514 15.6408C13.7364 15.2673 13.9459 14.8597 14.08 14.4181C14.2309 13.9766 14.3314 13.3992 14.3817 12.6859C14.432 11.9726 14.4571 11.0131 14.4571 9.80736V0H11.8171V10.7499C11.8171 12.4651 11.5489 13.6709 11.0125 14.3672C10.7108 14.7917 10.2834 15.1144 9.73025 15.3351C9.19386 15.5559 8.56529 15.6663 7.84453 15.6663C7.12378 15.6663 6.50359 15.5559 5.98394 15.3351C5.46437 15.1144 5.04533 14.7833 4.72683 14.3417C4.4754 13.9511 4.29101 13.4501 4.17365 12.8387C4.07308 12.2274 4.02279 11.4547 4.02279 10.5206V0H1.25711ZM16 19.6842H0V22H16V19.6842Z" fill="black"/>
</svg>
