<svg width="18" height="15" viewBox="0 0 18 15" fill="none" xmlns="http://www.w3.org/2000/svg">
<path d="M16.75 0C16.9489 0 17.1397 0.0790175 17.2803 0.21967C17.421 0.360322 17.5 0.551088 17.5 0.75C17.5 0.948912 17.421 1.13968 17.2803 1.28033C17.1397 1.42098 16.9489 1.5 16.75 1.5H5.75C5.55109 1.5 5.36032 1.42098 5.21967 1.28033C5.07902 1.13968 5 0.948912 5 0.75C5 0.551088 5.07902 0.360322 5.21967 0.21967C5.36032 0.0790175 5.55109 0 5.75 0H16.75ZM16.75 4.5C16.9489 4.5 17.1397 4.57902 17.2803 4.71967C17.421 4.86032 17.5 5.05109 17.5 5.25C17.5 5.44891 17.421 5.63968 17.2803 5.78033C17.1397 5.92098 16.9489 6 16.75 6H0.75C0.551087 6 0.360322 5.92098 0.21967 5.78033C0.0790175 5.63968 0 5.44891 0 5.25C0 5.05109 0.0790175 4.86032 0.21967 4.71967C0.360322 4.57902 0.551087 4.5 0.75 4.5H16.75ZM16.75 13.5C16.9489 13.5 17.1397 13.579 17.2803 13.7197C17.421 13.8603 17.5 14.0511 17.5 14.25C17.5 14.4489 17.421 14.6397 17.2803 14.7803C17.1397 14.921 16.9489 15 16.75 15H0.75C0.551087 15 0.360322 14.921 0.21967 14.7803C0.0790175 14.6397 0 14.4489 0 14.25C0 14.0511 0.0790175 13.8603 0.21967 13.7197C0.360322 13.579 0.551087 13.5 0.75 13.5H16.75ZM17.5 9.75C17.5 9.55109 17.421 9.36032 17.2803 9.21967C17.1397 9.07902 16.9489 9 16.75 9H5.75C5.55109 9 5.36032 9.07902 5.21967 9.21967C5.07902 9.36032 5 9.55109 5 9.75C5 9.94891 5.07902 10.1397 5.21967 10.2803C5.36032 10.421 5.55109 10.5 5.75 10.5H16.75C16.9489 10.5 17.1397 10.421 17.2803 10.2803C17.421 10.1397 17.5 9.94891 17.5 9.75Z" fill="black"/>
</svg>
