<svg width="328" height="404" viewBox="0 0 328 404" fill="none" xmlns="http://www.w3.org/2000/svg">
<line x1="12" y1="142.593" x2="48" y2="142.593" stroke="#F54D0B"/>
<line x1="48.4918" y1="142.183" x2="0.491751" y2="403.183" stroke="#F54D0B"/>
<line x1="85" y1="108.593" x2="117" y2="108.593" stroke="#F54D0B"/>
<line x1="84.5087" y1="109" x2="91.5087" y2="71.9998" stroke="#F54D0B"/>
<line x1="11.5096" y1="142.995" x2="38.5096" y2="6.9027" stroke="#F54D0B"/>
<path d="M211.997 7.59277L38.0001 6.5" stroke="#F54D0B"/>
<path d="M195 72.5928L91.6542 72.5928" stroke="#F54D0B"/>
<path d="M129.5 181.5L105.469 247.266" stroke="#F54D0B"/>
<line x1="0.534914" y1="402.816" x2="116.535" y2="108.909" stroke="#F54D0B"/>
<path d="M129 181.835L151.5 181.835L162.5 180.593L173 175.593L183.5 170.593L193 163.593L201 156.593L208.5 148.093L215.75 137.593L222.5 125.593L224.5 114.593L224.5 102.593L223 91.0925L217.5 82.5925L206.5 75.5925L194.5 72.5" stroke="#F54D0B"/>
<path d="M105 247.326L129.5 247.326L141.5 247.326L154.5 246.093L166.5 244.093L177.5 240.593L188 235.593L199 230.593L210.5 224.093L221.5 217.093L231.5 209.593L241.5 201.093L249.5 193.093L257 184.593L264.5 175.093L271.5 164.093L278.5 152.593L284.486 139.858L288.5 127.093L291.5 113.593L293 102.093L293 90.5928L292 78.5928L289.5 66.5928L287.5 60.5928L285.5 54.5928L279 44.0928L273.5 37.0928L266.5 30.0928L257.5 22.5928L247 16.0928L230 9.59278L211.5 7.59275" stroke="#F54D0B"/>
<path d="M38.5001 6.5L211.5 8L228.5 9.5L243 14.5L256.5 22L268 31.5L276.5 41L283.5 51L288 61.5L290.5 72.5H91.5001L87.5001 94L84.5001 108.5H116.5L105 137.5L102 146L1.5 399L48.5 142.5H43.5001H11.8291L38.5001 6.5Z" fill="#F54D0B"/>
<path d="M196 72.5L290.5 72L293 85.5V103L289.5 123L283 143L274.5 159.5L261.5 179.5L240 202.5L217.5 219.5L196.5 231.5L180 239.5L165.5 244L150.5 246.5L142 247H105L129.5 182H145.5L162 180.5L181 172L194 163L205.5 152L215.5 138.5L222.5 125.5L224.5 112.5V104.5L223.5 93L222 89L218 83.5L216 81.5L206.5 75.5L196 72.5Z" fill="#F54D0B"/>
</svg>
