<svg width="16" height="20" viewBox="0 0 16 20" fill="none" xmlns="http://www.w3.org/2000/svg">
<path d="M10.2274 20H0V0H9.39811C10.5062 6.62762e-05 11.591 0.318836 12.5246 0.918651C13.4581 1.51847 14.2013 2.37427 14.6664 3.38495C15.1315 4.39563 15.299 5.51896 15.1491 6.62224C14.9993 7.72553 14.5383 8.76266 13.8207 9.61111C14.758 10.3644 15.4399 11.3911 15.7726 12.55C16.1052 13.7088 16.0723 14.9428 15.6782 16.082C15.2842 17.2212 14.5484 18.2097 13.5723 18.9113C12.5961 19.613 11.4275 19.9933 10.2274 20ZM3.31698 16.6667H10.2052C10.5319 16.6667 10.8554 16.602 11.1573 16.4764C11.4591 16.3507 11.7333 16.1666 11.9643 15.9344C12.1953 15.7023 12.3786 15.4267 12.5036 15.1234C12.6286 14.8201 12.693 14.495 12.693 14.1667C12.693 13.8384 12.6286 13.5133 12.5036 13.21C12.3786 12.9066 12.1953 12.631 11.9643 12.3989C11.7333 12.1668 11.4591 11.9826 11.1573 11.857C10.8554 11.7313 10.5319 11.6667 10.2052 11.6667H3.31698V16.6667ZM3.31698 8.33333H9.39811C9.7248 8.33333 10.0483 8.26867 10.3501 8.14303C10.6519 8.0174 10.9262 7.83325 11.1572 7.6011C11.3882 7.36895 11.5715 7.09336 11.6965 6.79004C11.8215 6.48673 11.8858 6.16164 11.8858 5.83333C11.8858 5.50503 11.8215 5.17994 11.6965 4.87662C11.5715 4.57331 11.3882 4.29771 11.1572 4.06557C10.9262 3.83342 10.6519 3.64927 10.3501 3.52363C10.0483 3.398 9.7248 3.33333 9.39811 3.33333H3.31698V8.33333Z" fill="black"/>
</svg>
