<svg width="50" height="51" viewBox="0 0 50 51" fill="none" xmlns="http://www.w3.org/2000/svg">
<path d="M14.5031 0.186157H35.5031C43.5031 0.186157 50.0031 6.68616 50.0031 14.6862V35.6862C50.0031 39.5318 48.4754 43.2199 45.7562 45.9392C43.0369 48.6585 39.3488 50.1862 35.5031 50.1862H14.5031C6.50311 50.1862 0.00311279 43.6862 0.00311279 35.6862V14.6862C0.00311279 10.8405 1.53079 7.15239 4.25006 4.43311C6.96934 1.71383 10.6575 0.186157 14.5031 0.186157ZM14.0031 5.18616C11.6162 5.18616 9.32698 6.13437 7.63915 7.8222C5.95132 9.51002 5.00311 11.7992 5.00311 14.1862V36.1862C5.00311 41.1612 9.02811 45.1862 14.0031 45.1862H36.0031C38.3901 45.1862 40.6792 44.2379 42.3671 42.5501C44.0549 40.8623 45.0031 38.5731 45.0031 36.1862V14.1862C45.0031 9.21116 40.9781 5.18616 36.0031 5.18616H14.0031ZM38.1281 8.93616C38.9569 8.93616 39.7518 9.2654 40.3378 9.85145C40.9239 10.4375 41.2531 11.2324 41.2531 12.0612C41.2531 12.89 40.9239 13.6848 40.3378 14.2709C39.7518 14.8569 38.9569 15.1862 38.1281 15.1862C37.2993 15.1862 36.5045 14.8569 35.9184 14.2709C35.3324 13.6848 35.0031 12.89 35.0031 12.0612C35.0031 11.2324 35.3324 10.4375 35.9184 9.85145C36.5045 9.2654 37.2993 8.93616 38.1281 8.93616ZM25.0031 12.6862C28.3183 12.6862 31.4977 14.0031 33.8419 16.3473C36.1862 18.6915 37.5031 21.871 37.5031 25.1862C37.5031 28.5014 36.1862 31.6808 33.8419 34.025C31.4977 36.3692 28.3183 37.6862 25.0031 37.6862C21.6879 37.6862 18.5085 36.3692 16.1643 34.025C13.8201 31.6808 12.5031 28.5014 12.5031 25.1862C12.5031 21.871 13.8201 18.6915 16.1643 16.3473C18.5085 14.0031 21.6879 12.6862 25.0031 12.6862ZM25.0031 17.6862C23.014 17.6862 21.1063 18.4763 19.6998 19.8829C18.2933 21.2894 17.5031 23.197 17.5031 25.1862C17.5031 27.1753 18.2933 29.0829 19.6998 30.4895C21.1063 31.896 23.014 32.6862 25.0031 32.6862C26.9922 32.6862 28.8999 31.896 30.3064 30.4895C31.7129 29.0829 32.5031 27.1753 32.5031 25.1862C32.5031 23.197 31.7129 21.2894 30.3064 19.8829C28.8999 18.4763 26.9922 17.6862 25.0031 17.6862Z" fill="black"/>
</svg>
