<svg width="18" height="15" viewBox="0 0 18 15" fill="none" xmlns="http://www.w3.org/2000/svg">
<path d="M0.75 0C0.551088 0 0.360324 0.0790175 0.219671 0.21967C0.079019 0.360322 0 0.551088 0 0.75C0 0.948912 0.079019 1.13968 0.219671 1.28033C0.360324 1.42098 0.551088 1.5 0.75 1.5H11.75C11.9489 1.5 12.1397 1.42098 12.2803 1.28033C12.421 1.13968 12.5 0.948912 12.5 0.75C12.5 0.551088 12.421 0.360322 12.2803 0.21967C12.1397 0.0790175 11.9489 0 11.75 0H0.75ZM0.75 4.5C0.551088 4.5 0.360324 4.57902 0.219671 4.71967C0.079019 4.86032 0 5.05109 0 5.25C0 5.44891 0.079019 5.63968 0.219671 5.78033C0.360324 5.92098 0.551088 6 0.75 6H16.75C16.9489 6 17.1397 5.92098 17.2803 5.78033C17.421 5.63968 17.5 5.44891 17.5 5.25C17.5 5.05109 17.421 4.86032 17.2803 4.71967C17.1397 4.57902 16.9489 4.5 16.75 4.5H0.75ZM0.75 13.5C0.551088 13.5 0.360324 13.579 0.219671 13.7197C0.079019 13.8603 0 14.0511 0 14.25C0 14.4489 0.079019 14.6397 0.219671 14.7803C0.360324 14.921 0.551088 15 0.75 15H16.75C16.9489 15 17.1397 14.921 17.2803 14.7803C17.421 14.6397 17.5 14.4489 17.5 14.25C17.5 14.0511 17.421 13.8603 17.2803 13.7197C17.1397 13.579 16.9489 13.5 16.75 13.5H0.75ZM0 9.75C0 9.55109 0.079019 9.36032 0.219671 9.21967C0.360324 9.07902 0.551088 9 0.75 9H11.75C11.9489 9 12.1397 9.07902 12.2803 9.21967C12.421 9.36032 12.5 9.55109 12.5 9.75C12.5 9.94891 12.421 10.1397 12.2803 10.2803C12.1397 10.421 11.9489 10.5 11.75 10.5H0.75C0.551088 10.5 0.360324 10.421 0.219671 10.2803C0.079019 10.1397 0 9.94891 0 9.75Z" fill="black"/>
</svg>
